<svg xmlns="http://www.w3.org/2000/svg" version="1.1" xmlns:xlink="http://www.w3.org/1999/xlink" xmlns:svgjs="http://svgjs.dev/svgjs" width="117" height="84.124"><svg xmlns="http://www.w3.org/2000/svg" width="117" height="84.124"><path fill="#818386" d="M.682 72.374h1.544V61.802l10.8 11.193v-14.34h-1.541v10.629L.682 58.072ZM19.65 58.655h7.186v1.423h-5.64v4.075h5.473v1.418h-5.473v5.387h5.64v1.416H19.65Zm17.524 10.279 4.483-10.986 4.487 10.986 3.638-10.278h1.674l-5.312 14.428-4.488-11.044-4.482 11.044-5.309-14.429h1.67Zm22.098-10.279h1.782l3.525 6.115 3.53-6.115h1.782l-4.536 7.827v5.892h-1.544v-5.892Zm28.491 6.878a7.221 7.221 0 1 1-7.215-7.115 7.147 7.147 0 0 1 7.219 7.115m-12.9-.019a5.678 5.678 0 1 0 5.681-5.674 5.7 5.7 0 0 0-5.679 5.675m20.299 6.859h-1.544v-13.72h2c2.626 0 5.067.695 5.067 3.785a3.6 3.6 0 0 1-3.473 3.783l4.413 6.152h-1.884l-4.2-6.022h-.381Zm0-7.368h.475c1.746 0 3.51-.327 3.51-2.457 0-2.256-1.672-2.473-3.526-2.473h-.46Zm19.323-6.351h2.075l-6.5 6.386 6.724 7.334h-2.13l-5.679-6.294-.384.382v5.912h-1.542v-13.72h1.536v5.875Z"></path><path fill="#005ba9" d="M6.017 80.817v.145a2.868 2.868 0 0 1-2.94 3.162A3.017 3.017 0 0 1 0 81.03a3.065 3.065 0 0 1 3.154-3.149 2.835 2.835 0 0 1 2.555 1.415l-1.115.55a1.642 1.642 0 0 0-1.476-.94A1.955 1.955 0 0 0 1.3 81.03a1.924 1.924 0 0 0 1.826 2.074A1.468 1.468 0 0 0 4.6 81.759H3.232v-.943Zm6.376-1.774v1.308h2v1.006h-2v1.606h2.082v1.008h-3.349v-5.934h3.345v1.006Zm7.405-1.162h.908l3.4 4.145h.019v-3.989h1.259v6.047h-.907l-3.4-4.145h-.024v4.032h-1.255Zm10.685 3.116a3.2 3.2 0 1 1 3.2 3.127 3.119 3.119 0 0 1-3.2-3.127m1.3-.048a2.1 2.1 0 0 0 1.9 2.032 2.1 2.1 0 0 0 1.887-2.027 1.894 1.894 0 1 0-3.787 0m15.02-.665h-.015l-1.464 3.76h-.441l-1.411-3.76h-.019l-.574 3.683H41.61l1.088-6.091h.89l1.6 3.906 1.523-3.906h.907l.97 6.091h-1.272Zm8.087-1.246v1.308h2v1.006h-2v1.606h2.079v1.008h-3.34v-5.934h3.34v1.006Zm15.257.569a1.972 1.972 0 1 0-1.43 3.41 2.035 2.035 0 0 0 1.43-.627v1.375a3.561 3.561 0 0 1-1.461.354 3.122 3.122 0 1 1 .022-6.243 3.256 3.256 0 0 1 1.439.346Zm6.578-.569v1.308h2.008v1.006h-2.008v1.606h2.091v1.008h-3.349v-5.934h3.349v1.006Zm7.409-1.162h.909l3.4 4.145h.018v-3.989h1.26v6.047h-.909l-3.4-4.145h-.016v4.032h-1.262Zm13.089 6.09h-1.258v-4.927h-1.3v-1.007h3.862v1.007h-1.3Zm7.517-4.928v1.308h2v1.006h-2v1.606h2.079v1.008h-3.341v-5.934h3.338v1.006Zm11.776 4.929h-1.526l-1.566-2.4h-.016v2.4h-1.26v-5.935h1.7c1.278 0 2.162.521 2.162 1.787a1.587 1.587 0 0 1-1.32 1.642Zm-3.109-3.2h.167c.687 0 1.183-.186 1.183-.91s-.51-.873-1.18-.873h-.17Z"></path><path fill="#ac9f86" d="m109.271 39.572-.015-2.937h-4.783v4.09h-.928v-6.141h-3.356v8.035h-1.426v2.361h10.5Zm3.994 3.881v-3.137h-2.557v4.664h6.227v-1.527Z"></path><path fill="#483a33" d="M98.767 46.684H117v2.192H98.767z"></path><path fill="#68bad9" d="M53.069 43.479h8.97v5.347h-8.97z"></path><path fill="#002548" d="M53.069 39.535h8.97v1.922h-8.97zm.634-3.803h7.701v1.928h-7.701z"></path><path fill="#005ba9" d="M60.534 13.842h-.351v-2.49h-.092v-.026h-.608v-1.3a2.518 2.518 0 0 0-.152-.624h.14v-.261h-.352s.024-.082-.087-.309a2.708 2.708 0 0 0-.509-.534h-1.954a2.653 2.653 0 0 0-.506.534c-.116.227-.09.309-.09.309h-.35V9.4h.138a2.494 2.494 0 0 0-.153.624v1.3h-.606v.026h-.089v2.49h-.352v5.01h5.974Z"></path><path fill="#1f5590" d="m58.127 5.14-.5-5.14h-.173l-.488 5.14-.039 1.355h1.239Z"></path><path fill="#68bad9" d="M60.534 31.951V21.103H54.56v11.238h5.978v-.39Z"></path><path fill="#90ceea" d="M13.078 34.917h4.605v3.436h-4.605zm-5.603 1.901h4.514v1.535H7.475z"></path><path fill="#005ba9" d="M5.92 41.74v-.2H2.755v2.792H.313v.77H5.92Zm7.157-.157h-1.088v-1.2H7.475V45.1h10.207v-4.716h-4.6Z"></path><path fill="#002548" d="M.313 46.597h17.369v2.219H.313z"></path><path fill="#d5291a" d="M90.004 29.255h6.86v1.391h-6.86zm0 3.015h6.86v1.391h-6.86z"></path><path fill="#bf3f1b" d="M90.004 41.804h6.86v7.053h-6.86z"></path><path fill="#ef5a28" d="M90.004 36.114h6.86v4.304h-6.86z"></path><path fill="#e36d18" d="M96.864 25.195h.524v-.567h-.524v-.516h-6.86v.516h-.524v.567h.524v1.932h6.86Z"></path><path fill="#af0721" d="M24.25 23.935h-.474v-1.863h-.8v1.864h-.481v.95h1.757Z"></path><path fill="#6b000f" d="M22.047 27.169h-.64v1.769h3.933v-1.769h-.637v-1.264h-2.656Z"></path><path fill="#da151a" d="M20.575 31.267h5.599v7.177h-5.599z"></path><path fill="#af0721" d="M20.575 46.899h-.757v1.915h7.117v-1.915h-.761V41.51h-5.6Z"></path><path fill="#f8800d" d="M39.148 44.18h11.29v1.77h-11.29z"></path><path fill="#f77e0e" d="M40.7 36.634h-1.552v5.231h11.29V40.01h-.239v-3.882h-9.5Z"></path><path fill="#ffe057" d="M44.991 29.436H40.7v4.911h9.5v-6.891h-5.209Z"></path><path fill="#ff9d00" d="M44.991 21.13h5.206v4.099h-5.206z"></path><path fill="#ffdd1f" d="M39.148 47.504h11.29v1.313h-11.29z"></path><path fill="#248332" d="M29.202 36.747h7.352v-1.144h-.012v-.076h-7.34Z"></path><path fill="#003718" d="M29.202 23.338h6.865l-2.6-2.326h-4.265Zm.252-5.906h-.252v1.739h2.2Z"></path><path fill="#248332" d="M29.202 38.841h7.352v2.715h-7.352z"></path><path fill="#6fa935" d="M29.202 43.589h7.352v5.227h-7.352z"></path><path fill="#70aa36" d="M29.202 34.142h7.34v-7.61h-7.34Z"></path><path fill="#053e1c" d="M78.783 25.26h5.323v1.969h-5.323z"></path><path fill="#145629" d="M78.783 29.127h9.019v3.872h-9.019z"></path><path fill="#70aa36" d="M78.783 35.176h9.019v6.496h-9.019z"></path><path fill="#b8ce48" d="M78.783 44.509h9.019v4.337h-9.019z"></path><path fill="#313133" d="M64.43 41.927h12.166v1.511H64.43z"></path><path fill="#c7c9cb" d="M76.596 32.297h-5.583v1.074h-1.554v-1.074H64.43v6.725h12.166Z"></path><path fill="#6d6f72" d="M64.43 45.595h12.166v3.258H64.43zm6.588-25.475h5.578v9.856h-5.578zm-6.588 3.146h5.029v6.711H64.43z"></path></svg><style>@media (prefers-color-scheme: light) { :root { filter: none; } }
@media (prefers-color-scheme: dark) { :root { filter: none; } }
</style></svg>